<mxfile host="app.diagrams.net" modified="2023-06-25T16:59:28.455Z" agent="Mozilla/5.0 (Windows NT 10.0; Win64; x64) AppleWebKit/537.36 (KHTML, like Gecko) Chrome/114.0.0.0 Safari/537.36 Edg/114.0.1823.43" version="21.3.8" etag="hP3YH_ow9LcH-_RtQoNP" type="github">
  <diagram name="Страница 1" id="te1OxvqnCeTf8oiL8aiz">
    <mxGraphModel>
      <root>
        <mxCell id="0" />
        <mxCell id="1" parent="0" />
      </root>
    </mxGraphModel>
  </diagram>
</mxfile>
